<svg xmlns="http://www.w3.org/2000/svg" version="1.1" xmlns:xlink="http://www.w3.org/1999/xlink" xmlns:svgjs="http://svgjs.dev/svgjs" width="1440" height="560" preserveAspectRatio="none" viewBox="0 0 1440 560">
    <g mask="url(&quot;#SvgjsMask2044&quot;)" fill="none">
        <rect width="1440" height="560" x="0" y="0" fill="url(&quot;#SvgjsLinearGradient2045&quot;)"></rect>
        <path d="M1488 560L0 560 L0 268Q88.36 236.37, 120 324.73Q141.38 274.11, 192 295.49Q227.92 211.41, 312 247.33Q340.22 203.56, 384 231.78Q478.96 206.75, 504 301.71Q532.16 257.87, 576 286.02Q655.81 245.83, 696 325.64Q723.88 281.52, 768 309.4Q770.38 239.78, 840 242.17Q895.31 177.47, 960 232.78Q1031.97 232.75, 1032 304.72Q1063.67 216.39, 1152 248.07Q1203.47 227.54, 1224 279.01Q1233.39 216.41, 1296 225.8Q1339.6 197.4, 1368 240.99Q1477.48 230.47, 1488 339.95z" fill="rgba(255, 79, 0, 1)"></path>
        <path d="M1464 560L0 560 L0 341.55Q40.36 309.91, 72 350.27Q95.73 302, 144 325.73Q210.32 272.06, 264 338.38Q334.4 336.78, 336 407.18Q378.65 377.83, 408 420.47Q424.98 365.45, 480 382.42Q513.62 296.04, 600 329.66Q651.26 260.92, 720 312.18Q776.76 296.94, 792 353.7Q863.81 305.5, 912 377.31Q962.97 356.28, 984 407.26Q1010.04 313.3, 1104 339.34Q1185.73 301.07, 1224 382.81Q1267.56 306.37, 1344 349.92Q1394.44 280.36, 1464 330.8z" fill="rgba(206, 8, 8, 1)"></path>
        <path d="M1536 560L0 560 L0 394.21Q116.62 390.83, 120 507.45Q165.17 432.62, 240 477.79Q269.07 386.87, 360 415.94Q433.55 369.49, 480 443.04Q548.66 439.71, 552 508.37Q572.35 408.72, 672 429.06Q698.03 383.09, 744 409.12Q830.68 375.81, 864 462.49Q936.08 414.57, 984 486.65Q990.62 421.27, 1056 427.89Q1122.07 373.95, 1176 440.02Q1245.34 389.36, 1296 458.69Q1325.74 368.43, 1416 398.17Q1488.57 350.74, 1536 423.31z" fill="rgba(53, 108, 177, 1)"></path>
        <path d="M1536 560L0 560 L0 559.64Q41 480.64, 120 521.65Q166.38 496.03, 192 542.42Q261.8 492.22, 312 562.03Q380.66 510.69, 432 579.36Q454.61 481.97, 552 504.57Q618.79 451.36, 672 518.14Q764.07 490.21, 792 582.28Q811.42 481.7, 912 501.12Q955.59 472.71, 984 516.3Q1052.24 512.53, 1056 580.77Q1071.77 476.53, 1176 492.3Q1229.8 426.1, 1296 479.9Q1377.09 440.99, 1416 522.07Q1463.96 450.03, 1536 497.99z" fill="rgba(255, 255, 255, 1)"></path>
    </g>
    <defs>
        <mask id="SvgjsMask2044">
            <rect width="1440" height="560" fill="#ffffff"></rect>
        </mask>
        <linearGradient x1="50%" y1="100%" x2="50%" y2="0%" gradientUnits="userSpaceOnUse" id="SvgjsLinearGradient2045">
            <stop stop-color="rgba(255, 255, 255, 0.76)" offset="0"></stop>
            <stop stop-color="rgba(255, 142, 142, 1)" offset="1"></stop>
        </linearGradient>
    </defs>
</svg>